<svg xmlns="http://www.w3.org/2000/svg" version="1.1" xmlns:xlink="http://www.w3.org/1999/xlink" xmlns:svgjs="http://svgjs.dev/svgjs" width="1440" height="560" preserveAspectRatio="none" viewBox="0 0 1440 560">
    <g mask="url(&quot;#SvgjsMask1105&quot;)" fill="none">
        <rect width="1440" height="560" x="0" y="0" fill="#006045"></rect>
        <path d="M -155.72351286312482,101 C -11.72,148 276.28,340.6 564.2764871368752,336 C 852.28,331.4 996.28,78.8 1284.2764871368752,78 C 1572.28,77.2 1973.13,322.6 2004.2764871368752,332 C 2035.42,341.4 1552.86,166.4 1440,125" stroke="rgba(173, 206, 190, 0.25)" stroke-width="2"></path>
        <path d="M -1181.9228131674517,387 C -1037.92,353.8 -749.92,202 -461.9228131674517,221 C -173.92,240 -29.92,478.6 258.0771868325483,482 C 546.08,485.4 741.69,271 978.0771868325483,238 C 1214.46,205 1347.62,301.2 1440,317" stroke="rgba(173, 206, 190, 0.25)" stroke-width="2"></path>
        <path d="M -1396.2804610372436,139 C -1252.28,180.6 -964.28,359.4 -676.2804610372435,347 C -388.28,334.6 -244.28,73.4 43.719538962756474,77 C 331.72,80.6 484.46,362.2 763.7195389627565,365 C 1042.98,367.8 1304.74,145.8 1440,91" stroke="rgba(173, 206, 190, 0.25)" stroke-width="2"></path>
    </g>
    <defs>
        <mask id="SvgjsMask1105">
            <rect width="1440" height="560" fill="#ffffff"></rect>
        </mask>
    </defs>
</svg>