<svg width="75" height="59" viewBox="0 0 75 59" fill="none" xmlns="http://www.w3.org/2000/svg">
<path d="M16.9726 1.21274C19.2255 1.86007 21.3762 2.86695 23.4232 4.23118C27.7063 7.03045 31.3245 11.2486 34.286 16.8512V30.2722C32.9765 30.1196 31.7355 30.0548 30.5388 29.8221C27.3356 29.231 25.2363 27.427 24.2371 24.4865C23.6448 22.7054 23.4352 20.8824 23.4352 19.0251C23.4246 14.6849 23.4233 10.3448 23.4232 6.00471C21.4404 4.55653 19.3602 3.48136 17.1806 2.77669C17.1776 8.51323 17.1607 14.2527 17.2052 19.9923C17.2173 21.5178 17.3543 23.0586 17.6444 24.5498C18.3777 28.4285 20.5253 31.4034 24.2725 33.2607C26.6498 34.4354 29.2164 34.9846 31.8717 35.1715C32.6614 35.2249 33.4512 35.2477 34.2973 35.2935C33.7187 35.3036 33.1538 35.3297 32.6017 35.3661C33.2202 35.3543 33.853 35.3486 34.5 35.3492V53.4918C32.0099 57.3361 28.9638 59.1706 25.3616 58.9875C19.9584 58.7129 11.1061 52.0806 12.4962 43.7054C13.1703 39.6291 17.2658 37.0428 24.7842 35.9495C18.3405 35.7165 13.9608 34.4095 11.8906 33.4895C7.43424 31.5254 3.32439 27.1547 1.52734 20.9152C-0.285828 14.6757 -2.10705 0.572047 6.34231 0.0686161C10.1727 -0.170355 13.7212 0.215791 16.9726 1.21274Z" fill="#1EB9B4"/>
<path d="M58.0274 1.21274C55.7745 1.86007 53.6238 2.86695 51.5768 4.23118C47.2937 7.03045 43.6755 11.2486 40.714 16.8512V30.2722C42.0235 30.1196 43.2645 30.0548 44.4612 29.8221C47.6644 29.231 49.7637 27.427 50.7629 24.4865C51.3552 22.7054 51.5648 20.8824 51.5648 19.0251C51.5754 14.6849 51.5767 10.3448 51.5768 6.00471C53.5596 4.55653 55.6398 3.48136 57.8194 2.77669C57.8224 8.51323 57.8393 14.2527 57.7948 19.9923C57.7827 21.5178 57.6457 23.0586 57.3556 24.5498C56.6223 28.4285 54.4747 31.4034 50.7275 33.2607C48.3502 34.4354 45.7836 34.9846 43.1283 35.1715C42.3386 35.2249 41.5488 35.2477 40.7027 35.2935C41.2813 35.3036 41.8462 35.3297 42.3983 35.3661C41.7798 35.3543 41.147 35.3486 40.5 35.3492V53.4918C42.9901 57.3361 46.0362 59.1706 49.6384 58.9875C55.0416 58.7129 63.8939 52.0806 62.5038 43.7054C61.8297 39.6291 57.7342 37.0428 50.2158 35.9495C56.6595 35.7165 61.0392 34.4095 63.1094 33.4895C67.5658 31.5254 71.6756 27.1547 73.4727 20.9152C75.2858 14.6757 77.1071 0.572047 68.6577 0.0686161C64.8273 -0.170355 61.2788 0.215791 58.0274 1.21274Z" fill="#0077C8"/>
</svg>
